# xmcd CD database file
#
# Track frame offsets:
#	150
#	12221
#	25116
#	37551
#	52227
#	64429
#	77312
#	90442
#	105246
#	117755
#	132602
#	147933
#	160661
#	173819
#	186292
#	200892
#	214568
#	230436
#	246046
#	258958
#	272676
#	285218
#	299904
#
# Disc length: 4191 seconds
#
# Revision: 0
# Processed by: cddbd v1.5.2PL0 Copyright (c) Steve Scherf et al.
# Submitted via: CDex 1.70beta2
#
DISCID=40105d17
DTITLE=Various Artist - That Devilin' Tune (A Jazz History) Volume 2 [CD4)
DYEAR=2006
DGENRE=Jazz
TTITLE0=Duke Ellington - Take It Easy
TTITLE1=James P Johnson And Orchestra - Chicago Blues
TTITLE2=Charlie Johnson - Charleston Is The Best Dance Of All
TTITLE3=Roy Evans - Jazzbo Dan And His Yodelin' Band
TTITLE4=Benny Goodman - A Jazz Holiday
TTITLE5=Lou Calabrese And His Hot Sketches - Lip-Stick
TTITLE6=Al Bernard - 'Taint So Honey, 'Taint So
TTITLE7=Joe Venuti And His New Yorkers - Doin' Things
TTITLE8=Horsey's Hot 5 - Weeping Blues
TTITLE9=Bix Beiderbecke and Frankie Trumbauer - Jubilee
TTITLE10=Alec Johnson and Mississippi Sheiks - Sister Maud Mule
TTITLE11=McKinney's Cotton Pickers - My Blackbirds Are Bluebirds Now
TTITLE12=Chicago Rhythm Kings - There'll Be Some Changes Made
TTITLE13=Pine Top Smith - Nobody Knows You When You're Down And Out
TTITLE14=Bing Crosby - My Kinda Love
TTITLE15=The Rhythm Boys - So The Bluebirds And The Blackbirds Got Together
TTITLE16=Louis Armstrong - Blue Turning Grey Over You
TTITLE17=Red McKenzie and Hawk and Russell - One Hour
TTITLE18=Jean Cocteau - La Toison d'Or
TTITLE19=Bix Beiderbecke and Frankie Trumbauer - I Like That
TTITLE20=Carson Robison And His Kansas City Jackrabbits - Nonsense
TTITLE21=Henry Lange And His Bajer Hotel Orchestra - Somebody Loves Me
TTITLE22=Marlow Hardy And His Alabamans - Song Of The Bayou
EXTD=YEAR: 2006
EXTT0=
EXTT1=
EXTT2=
EXTT3=
EXTT4=
EXTT5=
EXTT6=
EXTT7=
EXTT8=
EXTT9=
EXTT10=
EXTT11=
EXTT12=
EXTT13=
EXTT14=
EXTT15=
EXTT16=
EXTT17=
EXTT18=
EXTT19=
EXTT20=
EXTT21=
EXTT22=
PLAYORDER=
